<mxfile host="app.diagrams.net" agent="Mozilla/5.0 (Macintosh; Intel Mac OS X 10_15_7) AppleWebKit/537.36 (KHTML, like Gecko) Chrome/137.0.0.0 Safari/537.36" version="27.1.5">
  <diagram name="Página-1" id="8Nr6kVrE9SyybX-va9n5">
    <mxGraphModel dx="1018" dy="655" grid="1" gridSize="5" guides="1" tooltips="1" connect="1" arrows="1" fold="1" page="1" pageScale="1" pageWidth="1169" pageHeight="827" math="0" shadow="0">
      <root>
        <mxCell id="0" />
        <mxCell id="1" parent="0" />
        <mxCell id="F-6HF-LXUj0dGaGDXy4D-64" value="" style="endArrow=classic;startArrow=classic;html=1;rounded=0;exitX=0.5;exitY=0;exitDx=0;exitDy=0;strokeWidth=6;endSize=3;startSize=3;entryX=0.5;entryY=1;entryDx=0;entryDy=0;" parent="1" source="F-6HF-LXUj0dGaGDXy4D-39" edge="1">
          <mxGeometry width="50" height="50" relative="1" as="geometry">
            <mxPoint x="630" y="440" as="sourcePoint" />
            <mxPoint x="632.5" y="330" as="targetPoint" />
          </mxGeometry>
        </mxCell>
        <mxCell id="F-6HF-LXUj0dGaGDXy4D-67" value="&lt;b&gt;&lt;font style=&quot;font-size: 15px;&quot;&gt;Interfaz southbound&lt;/font&gt;&lt;/b&gt;&lt;div&gt;&lt;b&gt;&lt;font style=&quot;font-size: 15px;&quot;&gt;(P4Runtime)&lt;/font&gt;&lt;/b&gt;&lt;/div&gt;" style="text;html=1;align=center;verticalAlign=middle;whiteSpace=wrap;rounded=0;" parent="1" vertex="1">
          <mxGeometry x="615" y="370" width="224" height="30" as="geometry" />
        </mxCell>
        <mxCell id="F-6HF-LXUj0dGaGDXy4D-44" value="" style="shape=mxgraph.cisco.switches.generic_softswitch;html=1;pointerEvents=1;dashed=0;fillColor=#FF3333;strokeColor=#ffffff;strokeWidth=2;verticalLabelPosition=bottom;verticalAlign=top;align=center;outlineConnect=0;" parent="1" vertex="1">
          <mxGeometry x="615" y="265" width="35" height="55" as="geometry" />
        </mxCell>
        <mxCell id="F-6HF-LXUj0dGaGDXy4D-69" value="&lt;span style=&quot;font-size: 15px;&quot;&gt;&lt;b&gt;Controlador P4&lt;/b&gt;&lt;/span&gt;" style="text;html=1;align=center;verticalAlign=middle;whiteSpace=wrap;rounded=0;" parent="1" vertex="1">
          <mxGeometry x="520.5" y="230" width="224" height="30" as="geometry" />
        </mxCell>
        <mxCell id="F-6HF-LXUj0dGaGDXy4D-39" value="" style="rounded=1;whiteSpace=wrap;html=1;arcSize=0;" parent="1" vertex="1">
          <mxGeometry x="420" y="440" width="425" height="240" as="geometry" />
        </mxCell>
        <mxCell id="F-6HF-LXUj0dGaGDXy4D-15" value="" style="shape=mxgraph.cisco.switches.workgroup_switch;html=1;pointerEvents=1;dashed=0;fillColor=#036897;strokeColor=#ffffff;strokeWidth=2;verticalLabelPosition=bottom;verticalAlign=top;align=center;outlineConnect=0;" parent="1" vertex="1">
          <mxGeometry x="810" y="660" width="96" height="50" as="geometry" />
        </mxCell>
        <mxCell id="F-6HF-LXUj0dGaGDXy4D-22" value="&lt;span style=&quot;font-size: 15px;&quot;&gt;&lt;b&gt;Switch P4&lt;/b&gt;&lt;/span&gt;" style="text;html=1;align=center;verticalAlign=middle;whiteSpace=wrap;rounded=0;" parent="1" vertex="1">
          <mxGeometry x="520.5" y="690" width="224" height="30" as="geometry" />
        </mxCell>
        <mxCell id="F-6HF-LXUj0dGaGDXy4D-70" value="Agente P4Runtime" style="rounded=0;whiteSpace=wrap;html=1;" parent="1" vertex="1">
          <mxGeometry x="525" y="440" width="220" height="30" as="geometry" />
        </mxCell>
        <mxCell id="F-6HF-LXUj0dGaGDXy4D-73" value="Tabla de Flujo 3" style="whiteSpace=wrap;html=1;aspect=fixed;" parent="1" vertex="1">
          <mxGeometry x="675" y="515" width="55" height="55" as="geometry" />
        </mxCell>
        <mxCell id="F-6HF-LXUj0dGaGDXy4D-72" value="Tabla de Flujo 2" style="whiteSpace=wrap;html=1;aspect=fixed;" parent="1" vertex="1">
          <mxGeometry x="670" y="510" width="55" height="55" as="geometry" />
        </mxCell>
        <mxCell id="F-6HF-LXUj0dGaGDXy4D-74" value="Tabla de Flujo N" style="whiteSpace=wrap;html=1;aspect=fixed;" parent="1" vertex="1">
          <mxGeometry x="755" y="515" width="55" height="55" as="geometry" />
        </mxCell>
        <mxCell id="F-6HF-LXUj0dGaGDXy4D-71" value="Tabla de Flujo 1" style="whiteSpace=wrap;html=1;aspect=fixed;" parent="1" vertex="1">
          <mxGeometry x="665" y="505" width="55" height="55" as="geometry" />
        </mxCell>
        <mxCell id="sOdc01nXLRnJetioxxEl-2" value="" style="endArrow=none;dashed=1;html=1;rounded=0;entryX=1;entryY=0.5;entryDx=0;entryDy=0;exitX=0;exitY=0.5;exitDx=0;exitDy=0;" edge="1" parent="1" source="F-6HF-LXUj0dGaGDXy4D-74" target="F-6HF-LXUj0dGaGDXy4D-73">
          <mxGeometry width="50" height="50" relative="1" as="geometry">
            <mxPoint x="720" y="595" as="sourcePoint" />
            <mxPoint x="770" y="545" as="targetPoint" />
          </mxGeometry>
        </mxCell>
        <mxCell id="sOdc01nXLRnJetioxxEl-3" value="Arquitectura P4 (suministrado por el fabricante)" style="rounded=1;whiteSpace=wrap;html=1;arcSize=0;" vertex="1" parent="1">
          <mxGeometry x="450" y="610" width="360" height="50" as="geometry" />
        </mxCell>
        <mxCell id="sOdc01nXLRnJetioxxEl-4" value="Parser &amp;amp; Config. de Tablas" style="rounded=1;whiteSpace=wrap;html=1;arcSize=0;" vertex="1" parent="1">
          <mxGeometry x="455" y="505" width="165" height="70" as="geometry" />
        </mxCell>
        <mxCell id="sOdc01nXLRnJetioxxEl-5" value="Compilador P4" style="rounded=1;whiteSpace=wrap;html=1;arcSize=0;" vertex="1" parent="1">
          <mxGeometry x="255" y="505" width="125" height="70" as="geometry" />
        </mxCell>
        <mxCell id="sOdc01nXLRnJetioxxEl-6" value="Programa P4" style="rounded=1;whiteSpace=wrap;html=1;arcSize=0;" vertex="1" parent="1">
          <mxGeometry x="235" y="410" width="165" height="70" as="geometry" />
        </mxCell>
        <mxCell id="sOdc01nXLRnJetioxxEl-12" value="" style="endArrow=classic;html=1;rounded=0;entryX=0;entryY=0.5;entryDx=0;entryDy=0;strokeWidth=4;" edge="1" parent="1" source="sOdc01nXLRnJetioxxEl-5" target="sOdc01nXLRnJetioxxEl-4">
          <mxGeometry width="50" height="50" relative="1" as="geometry">
            <mxPoint x="315" y="655" as="sourcePoint" />
            <mxPoint x="365" y="605" as="targetPoint" />
          </mxGeometry>
        </mxCell>
        <mxCell id="sOdc01nXLRnJetioxxEl-13" value="" style="endArrow=classic;startArrow=classic;html=1;rounded=0;exitX=0.763;exitY=0.995;exitDx=0;exitDy=0;entryX=0.5;entryY=0;entryDx=0;entryDy=0;exitPerimeter=0;strokeWidth=2;" edge="1" parent="1" source="F-6HF-LXUj0dGaGDXy4D-70" target="F-6HF-LXUj0dGaGDXy4D-71">
          <mxGeometry width="50" height="50" relative="1" as="geometry">
            <mxPoint x="630" y="575" as="sourcePoint" />
            <mxPoint x="680" y="525" as="targetPoint" />
          </mxGeometry>
        </mxCell>
        <mxCell id="sOdc01nXLRnJetioxxEl-14" value="" style="rounded=0;whiteSpace=wrap;html=1;fillColor=none;dashed=1;" vertex="1" parent="1">
          <mxGeometry x="450" y="500" width="175" height="80" as="geometry" />
        </mxCell>
        <mxCell id="sOdc01nXLRnJetioxxEl-15" value="" style="endArrow=classic;html=1;rounded=0;exitX=0.5;exitY=1;exitDx=0;exitDy=0;entryX=0.5;entryY=0;entryDx=0;entryDy=0;strokeWidth=3;" edge="1" parent="1" source="sOdc01nXLRnJetioxxEl-6" target="sOdc01nXLRnJetioxxEl-5">
          <mxGeometry width="50" height="50" relative="1" as="geometry">
            <mxPoint x="395" y="525" as="sourcePoint" />
            <mxPoint x="445" y="475" as="targetPoint" />
          </mxGeometry>
        </mxCell>
        <mxCell id="sOdc01nXLRnJetioxxEl-16" value="Instalación de reglas" style="text;html=1;align=center;verticalAlign=middle;whiteSpace=wrap;rounded=0;" vertex="1" parent="1">
          <mxGeometry x="700" y="475" width="125" height="30" as="geometry" />
        </mxCell>
      </root>
    </mxGraphModel>
  </diagram>
</mxfile>
